<?xml version="1.0" encoding="UTF-8" standalone="no"?>
<!-- Created with Inkscape (http://www.inkscape.org/) -->

<svg
   width="110.80751mm"
   height="45.984581mm"
   viewBox="0 0 110.80751 45.984581"
   version="1.1"
   id="svg1"
   xmlns="http://www.w3.org/2000/svg"
   xmlns:svg="http://www.w3.org/2000/svg">
  <defs
     id="defs1" />
  <g
     id="layer1"
     transform="translate(-5.0270836,-183.62083)">
    <g
       id="g6"
       transform="matrix(0.26458333,0,0,0.26458333,-5.7149996,140.46729)">
	<path
   d="M 53.3,336.9 H 40.6 v -133 c 10.1,-3.2 20.7,-4.9 31.4,-5 6.9,-0.1 13.8,1.1 20.3,3.5 5.8,2.1 11.2,5.4 15.7,9.7 4.4,4.2 7.8,9.2 10,14.9 2.4,5.9 3.5,12.3 3.5,18.7 0,8.2 -1.4,15.2 -4.2,21.1 -2.6,5.6 -6.4,10.5 -11.1,14.5 -4.6,3.8 -9.9,6.6 -15.7,8.3 -5.8,1.8 -11.9,2.7 -18,2.7 -3.3,0 -6.5,-0.2 -9.7,-0.7 -3.2,-0.5 -6.4,-1.2 -9.5,-2 z M 107,245.4 c 0,-10.6 -3,-19.2 -8.9,-25.8 -5.9,-6.5 -14.3,-9.8 -25,-9.8 -3.4,0 -6.7,0.2 -10.1,0.6 -3.3,0.4 -6.6,1.2 -9.7,2.3 v 64.9 c 3,1 6,1.8 9.1,2.5 3,0.7 6,1 9.1,1 10.9,0 19.5,-3.1 25.9,-9.3 6.4,-6.1 9.6,-14.9 9.6,-26.4 z"
   id="path1" />

	<path
   d="M 147.1,291.4 V 163.1 h 12.8 v 128.2 h -12.8 z"
   id="path2" />

	<path
   d="m 264.8,278 c -4.1,4.5 -9.2,8.1 -14.8,10.5 -5.6,2.4 -12.4,3.6 -20.3,3.6 -6.6,0.1 -13.2,-1.1 -19.3,-3.8 -5.3,-2.3 -10,-5.8 -13.7,-10.2 -3.7,-4.3 -6.5,-9.3 -8.2,-14.7 -1.9,-5.6 -2.8,-11.5 -2.8,-17.4 -0.2,-7.1 1,-14.3 3.3,-21 1.9,-5.5 5,-10.5 9,-14.8 3.7,-3.8 8.2,-6.8 13.2,-8.7 5.1,-1.9 10.5,-2.8 15.9,-2.8 13.4,0 23.6,4.1 30.4,12.4 6.8,8.2 10.1,20.2 9.9,36 h -68.7 c 0.4,10.4 3.4,18.6 9,24.7 5.6,6.1 13.3,9.2 22.9,9.2 5,0.1 10,-0.8 14.7,-2.7 4.6,-1.9 8.6,-4.8 11.9,-8.5 z m -10.3,-41.6 c 0,-3.6 -0.6,-7.2 -1.7,-10.6 -1.1,-3.1 -2.7,-6 -4.9,-8.4 -2.3,-2.5 -5.2,-4.4 -8.3,-5.6 -7.7,-2.8 -16.2,-2.8 -23.9,0 -3,1.2 -5.8,3 -8,5.4 -2.2,2.5 -4,5.3 -5.4,8.3 -1.7,3.4 -2.7,7.1 -3.2,10.9 z"
   id="path3" />

	<path
   d="m 351.3,221.4 c -2.8,-3.7 -6.3,-6.7 -10.4,-8.9 -4.1,-2 -8.7,-3 -13.2,-2.8 -6.5,0 -11.1,1.2 -13.7,3.5 -2.6,2.2 -4,5.4 -3.9,8.8 -0.1,2.2 0.6,4.4 1.8,6.2 1.3,1.8 2.9,3.3 4.8,4.4 2.2,1.3 4.5,2.4 6.9,3.2 2.6,0.9 5.3,1.8 8.2,2.7 3.5,1.1 6.9,2.3 10.4,3.6 3.4,1.2 6.6,2.9 9.5,5 2.8,2 5.2,4.6 7,7.6 1.9,3.4 2.8,7.3 2.7,11.3 0.1,3.9 -0.9,7.7 -2.7,11.2 -1.8,3.3 -4.3,6.1 -7.3,8.3 -3.3,2.4 -7,4.1 -10.9,5.1 -10.8,2.8 -22.3,2.2 -32.7,-1.8 -6.1,-2.7 -11.6,-6.8 -15.9,-11.8 l 10,-8.8 c 6.7,8.6 15.3,12.8 25.9,12.8 6.9,0 12,-1.3 15.4,-3.9 3.3,-2.6 5,-5.7 5,-9.3 0.1,-2.5 -0.5,-4.9 -1.8,-7.1 -1.3,-2 -3,-3.6 -5,-4.9 -2.3,-1.4 -4.7,-2.6 -7.3,-3.4 -2.8,-0.9 -5.7,-1.8 -8.7,-2.7 -3.5,-1 -6.9,-2.1 -10.3,-3.3 -3.2,-1.1 -6.3,-2.7 -9.1,-4.7 -2.7,-1.9 -5,-4.4 -6.6,-7.2 -1.8,-3.4 -2.7,-7.3 -2.6,-11.2 0,-8.1 2.9,-14.3 8.8,-18.7 5.9,-4.4 13.5,-6.6 22.9,-6.6 6.1,-0.1 12.1,1.1 17.7,3.4 5.2,2.2 10.1,6.1 14.9,11.6 l -9.4,8.6 z"
   id="path4" />

	<path
   d="M 385.3,291.4 V 163.3 h 12.8 v 128.1 z m 12.9,-47.3 44,-44.4 h 17.2 l -45.1,44 44.9,47.6 h -17.8 z"
   id="path5" />

	<path
   class="st1"
   d="m 191.7,336.9 h -77.2 v -12.1 h 77.2 z"
   id="path6"
   style="fill:#53bce6" />

</g>
  </g>
</svg>
